# xmcd CD database file
#
# Track frame offsets:
#	150
#	13037
#	28070
#	41067
#	60340
#	76752
#	91757
#	105305
#	118817
#	133307
#	144760
#	154417
#	168372
#	185555
#	203455
#	220490
#	234362
#	245605
#	263397
#	276852
#	293155
#	304307
#	317200
#
# Disc length: 4352 seconds
#
# Revision: 0
# Processed by: cddbd v1.5.2PL0 Copyright (c) Steve Scherf et al.
# Submitted via: CDex 1.70beta2
#
DISCID=3f10fe17
DTITLE=ChartBreakers - ChartBreakers CGC-536
DYEAR=1900
DGENRE=Country
TTITLE0=Vern Gosdin - I'm Still Crazy
TTITLE1=Merle Haggard - If We're Not Back In Love By Monday
TTITLE2=Charley Pride - Mountain Of Love
TTITLE3=Tom T Hall - (Old Dogs, Children And) Watermelon Wine
TTITLE4=Waylon Jennings - America
TTITLE5=George Strait - Does Fort Worth Ever Cross Your Mind
TTITLE6=Doug Stone - Fourten Minutes Old
TTITLE7=John Conlee - Got My Heart Set On You
TTITLE8=Lee Greenwood - I O U
TTITLE9=Don Williams - It Must Be Love
TTITLE10=Willie Nelson - If You've Got The Money, I've Got The Time
TTITLE11=Johnny Duncan - It Couldn't Have Been Any Better
TTITLE12=Larry Gatlin and The Gatlin Brothers - Denver
TTITLE13=John Conlee - Domestic Love
TTITLE14=Ronnie Milsap - Happy, Happy Birthday Baby
TTITLE15=Conway Twitty - I Don't Know A Thing About Love
TTITLE16=Forrester Sisters - Just In Case
TTITLE17=Kenny Rogers - Lady
TTITLE18=Conway Twitty - Slow Hand
TTITLE19=Steve Wariner - Small Town Girl
TTITLE20=Ronnie McDowell and Conway Twitty - It's Only Make Believe
TTITLE21=Merle Haggard - It's Been A Great Afternoon
TTITLE22=Charley Pride - Kiss An Angel Good Morning
EXTD=YEAR: 1900
EXTT0=
EXTT1=
EXTT2=
EXTT3=
EXTT4=
EXTT5=
EXTT6=
EXTT7=
EXTT8=
EXTT9=
EXTT10=
EXTT11=
EXTT12=
EXTT13=
EXTT14=
EXTT15=
EXTT16=
EXTT17=
EXTT18=
EXTT19=
EXTT20=
EXTT21=
EXTT22=
PLAYORDER=
